<mxfile host="app.diagrams.net" agent="Mozilla/5.0 (Macintosh; Intel Mac OS X 10_15_7) AppleWebKit/537.36 (KHTML, like Gecko) Chrome/136.0.0.0 Safari/537.36" version="27.0.9">
  <diagram name="第 1 页" id="Tw6YdECy_-9IdAoQ1vOy">
    <mxGraphModel dx="1184" dy="824" grid="1" gridSize="10" guides="1" tooltips="1" connect="1" arrows="1" fold="1" page="1" pageScale="1" pageWidth="827" pageHeight="1169" math="0" shadow="0">
      <root>
        <mxCell id="0" />
        <mxCell id="1" parent="0" />
        <mxCell id="NM8kPyG5c3EhFTwlBtr6-3" value="JIT 编译服务" style="rounded=0;whiteSpace=wrap;html=1;dashed=1;align=left;verticalAlign=top;" vertex="1" parent="1">
          <mxGeometry x="200" y="200" width="390" height="220" as="geometry" />
        </mxCell>
        <mxCell id="NM8kPyG5c3EhFTwlBtr6-14" style="edgeStyle=orthogonalEdgeStyle;rounded=0;orthogonalLoop=1;jettySize=auto;html=1;" edge="1" parent="1" source="NM8kPyG5c3EhFTwlBtr6-6" target="NM8kPyG5c3EhFTwlBtr6-7">
          <mxGeometry relative="1" as="geometry" />
        </mxCell>
        <mxCell id="NM8kPyG5c3EhFTwlBtr6-6" value="LLVM IR&lt;br&gt;中间语言" style="shape=note;whiteSpace=wrap;html=1;backgroundOutline=1;darkOpacity=0.05;" vertex="1" parent="1">
          <mxGeometry x="344" y="210" width="70" height="110" as="geometry" />
        </mxCell>
        <mxCell id="NM8kPyG5c3EhFTwlBtr6-17" style="edgeStyle=orthogonalEdgeStyle;rounded=0;orthogonalLoop=1;jettySize=auto;html=1;entryX=1;entryY=0.5;entryDx=0;entryDy=0;" edge="1" parent="1" source="NM8kPyG5c3EhFTwlBtr6-7" target="NM8kPyG5c3EhFTwlBtr6-15">
          <mxGeometry relative="1" as="geometry">
            <Array as="points">
              <mxPoint x="630" y="265" />
              <mxPoint x="630" y="525" />
            </Array>
          </mxGeometry>
        </mxCell>
        <mxCell id="NM8kPyG5c3EhFTwlBtr6-24" value="可执行机器码" style="edgeLabel;html=1;align=center;verticalAlign=middle;resizable=0;points=[];" vertex="1" connectable="0" parent="NM8kPyG5c3EhFTwlBtr6-17">
          <mxGeometry x="0.2108" y="-2" relative="1" as="geometry">
            <mxPoint y="41" as="offset" />
          </mxGeometry>
        </mxCell>
        <mxCell id="NM8kPyG5c3EhFTwlBtr6-7" value="llvm JIT" style="rounded=1;whiteSpace=wrap;html=1;" vertex="1" parent="1">
          <mxGeometry x="470" y="245" width="100" height="40" as="geometry" />
        </mxCell>
        <mxCell id="NM8kPyG5c3EhFTwlBtr6-8" value="根据预制规则的 IR 代码生成" style="ellipse;whiteSpace=wrap;html=1;" vertex="1" parent="1">
          <mxGeometry x="210" y="340" width="140" height="60" as="geometry" />
        </mxCell>
        <mxCell id="NM8kPyG5c3EhFTwlBtr6-13" style="edgeStyle=orthogonalEdgeStyle;rounded=0;orthogonalLoop=1;jettySize=auto;html=1;" edge="1" parent="1" source="NM8kPyG5c3EhFTwlBtr6-9" target="NM8kPyG5c3EhFTwlBtr6-6">
          <mxGeometry relative="1" as="geometry" />
        </mxCell>
        <mxCell id="NM8kPyG5c3EhFTwlBtr6-9" value="生成 IR 语言的提示词" style="ellipse;whiteSpace=wrap;html=1;" vertex="1" parent="1">
          <mxGeometry x="430" y="340" width="120" height="60" as="geometry" />
        </mxCell>
        <mxCell id="NM8kPyG5c3EhFTwlBtr6-10" value="大语言模型" style="ellipse;shape=cloud;whiteSpace=wrap;html=1;" vertex="1" parent="1">
          <mxGeometry x="660" y="338" width="120" height="80" as="geometry" />
        </mxCell>
        <mxCell id="NM8kPyG5c3EhFTwlBtr6-11" style="edgeStyle=orthogonalEdgeStyle;rounded=0;orthogonalLoop=1;jettySize=auto;html=1;entryX=0.07;entryY=0.4;entryDx=0;entryDy=0;entryPerimeter=0;" edge="1" parent="1" source="NM8kPyG5c3EhFTwlBtr6-9" target="NM8kPyG5c3EhFTwlBtr6-10">
          <mxGeometry relative="1" as="geometry" />
        </mxCell>
        <mxCell id="NM8kPyG5c3EhFTwlBtr6-12" style="edgeStyle=orthogonalEdgeStyle;rounded=0;orthogonalLoop=1;jettySize=auto;html=1;entryX=0;entryY=0.5;entryDx=0;entryDy=0;entryPerimeter=0;" edge="1" parent="1" source="NM8kPyG5c3EhFTwlBtr6-8" target="NM8kPyG5c3EhFTwlBtr6-6">
          <mxGeometry relative="1" as="geometry" />
        </mxCell>
        <mxCell id="NM8kPyG5c3EhFTwlBtr6-15" value="mmap 内存" style="shape=parallelogram;perimeter=parallelogramPerimeter;whiteSpace=wrap;html=1;fixedSize=1;" vertex="1" parent="1">
          <mxGeometry x="500" y="505" width="90" height="40" as="geometry" />
        </mxCell>
        <mxCell id="NM8kPyG5c3EhFTwlBtr6-16" style="edgeStyle=orthogonalEdgeStyle;rounded=0;orthogonalLoop=1;jettySize=auto;html=1;entryX=0;entryY=0.5;entryDx=0;entryDy=0;" edge="1" parent="1" source="NM8kPyG5c3EhFTwlBtr6-2" target="NM8kPyG5c3EhFTwlBtr6-15">
          <mxGeometry relative="1" as="geometry" />
        </mxCell>
        <mxCell id="NM8kPyG5c3EhFTwlBtr6-18" value="function call" style="edgeLabel;html=1;align=center;verticalAlign=middle;resizable=0;points=[];" vertex="1" connectable="0" parent="NM8kPyG5c3EhFTwlBtr6-16">
          <mxGeometry x="-0.2923" y="1" relative="1" as="geometry">
            <mxPoint as="offset" />
          </mxGeometry>
        </mxCell>
        <mxCell id="NM8kPyG5c3EhFTwlBtr6-1" value="service / ios / android&lt;br&gt;amd64 / arm64 等" style="rounded=1;whiteSpace=wrap;html=1;" vertex="1" parent="1">
          <mxGeometry x="130" y="520" width="240" height="40" as="geometry" />
        </mxCell>
        <mxCell id="NM8kPyG5c3EhFTwlBtr6-2" value="sdk" style="ellipse;whiteSpace=wrap;html=1;" vertex="1" parent="1">
          <mxGeometry x="340" y="510" width="50" height="30" as="geometry" />
        </mxCell>
        <mxCell id="NM8kPyG5c3EhFTwlBtr6-4" value="带格式的数据 + 目标反序列化格式" style="edgeStyle=orthogonalEdgeStyle;rounded=0;orthogonalLoop=1;jettySize=auto;html=1;" edge="1" parent="1" source="NM8kPyG5c3EhFTwlBtr6-20">
          <mxGeometry x="1" y="60" relative="1" as="geometry">
            <mxPoint x="365" y="420" as="targetPoint" />
            <mxPoint x="-10" y="59" as="offset" />
          </mxGeometry>
        </mxCell>
        <mxCell id="NM8kPyG5c3EhFTwlBtr6-21" value="" style="edgeStyle=orthogonalEdgeStyle;rounded=0;orthogonalLoop=1;jettySize=auto;html=1;" edge="1" parent="1" source="NM8kPyG5c3EhFTwlBtr6-2" target="NM8kPyG5c3EhFTwlBtr6-20">
          <mxGeometry relative="1" as="geometry">
            <mxPoint x="365" y="510" as="sourcePoint" />
            <mxPoint x="365" y="420" as="targetPoint" />
          </mxGeometry>
        </mxCell>
        <mxCell id="NM8kPyG5c3EhFTwlBtr6-23" style="rounded=0;orthogonalLoop=1;jettySize=auto;html=1;entryX=0;entryY=1;entryDx=0;entryDy=0;" edge="1" parent="1" source="NM8kPyG5c3EhFTwlBtr6-20" target="NM8kPyG5c3EhFTwlBtr6-9">
          <mxGeometry relative="1" as="geometry" />
        </mxCell>
        <mxCell id="NM8kPyG5c3EhFTwlBtr6-20" value="" style="ellipse;whiteSpace=wrap;html=1;aspect=fixed;" vertex="1" parent="1">
          <mxGeometry x="350" y="410" width="30" height="30" as="geometry" />
        </mxCell>
        <mxCell id="NM8kPyG5c3EhFTwlBtr6-22" style="rounded=0;orthogonalLoop=1;jettySize=auto;html=1;entryX=1;entryY=0.5;entryDx=0;entryDy=0;" edge="1" parent="1" source="NM8kPyG5c3EhFTwlBtr6-20" target="NM8kPyG5c3EhFTwlBtr6-8">
          <mxGeometry relative="1" as="geometry" />
        </mxCell>
      </root>
    </mxGraphModel>
  </diagram>
</mxfile>
